<svg xmlns="http://www.w3.org/2000/svg" xmlns:xlink="http://www.w3.org/1999/xlink" width="173" height="26" viewBox="0 0 173 26">
  <defs>
    <polygon id="logo_nerya-a" points="0 .182 19.911 .182 19.911 21.839 0 21.839"/>
  </defs>
  <g fill="none" fill-rule="evenodd">
    <mask id="logo_nerya-b" fill="#fff">
      <use xlink:href="#logo_nerya-a"/>
    </mask>
    <path fill="#284670" d="M4.29433333,21.8394936 L4.76190476e-05,17.7077064 L0.00433333333,7.78149362 C0.00480952381,6.69600426 0.165285714,5.61753617 0.573857143,4.60413191 C0.951952381,3.66655745 1.49671429,2.80902553 2.23671429,2.1059617 C2.95385714,1.42489787 3.80290476,0.915153191 4.7462381,0.59872766 C5.57671429,0.320217021 6.44385714,0.18166383 7.32004762,0.18166383 C8.14147619,0.182131915 8.951,0.320217021 9.72957143,0.575323404 C10.783381,0.921706383 11.6895714,1.56204681 12.4990952,2.2946 L12.5329048,2.3259617 L12.998619,2.7659617 L19.9114762,10.093366 L19.9090952,15.8217915 L9.58909524,5.40081277 C9.26814286,5.1106 8.79052381,4.71928085 8.37004762,4.58072766 C8.03004762,4.4693234 7.67766667,4.40425957 7.31861905,4.40425957 C6.91290476,4.40425957 6.51719048,4.46604681 6.13338095,4.5952383 C5.78766667,4.7113234 5.4857619,4.89200426 5.22290476,5.14149362 C4.92671429,5.42281277 4.71814286,5.78604681 4.56766667,6.16004681 C4.36338095,6.66651489 4.30052381,7.24225957 4.30004762,7.78336596 L4.29433333,21.8394936 Z" mask="url(#logo_nerya-b)"/>
    <path fill="#F1AA49" d="M24.686237,5 L29,9.00628909 L28.995217,18.6310049 C28.9947387,19.6835238 28.8335526,20.7292347 28.4231735,21.711858 C28.0438838,22.6214086 27.4962334,23.4524402 26.7529595,24.1346031 C26.0326438,24.7949804 25.1798398,25.2892422 24.2323329,25.5960567 C23.3981825,25.8656541 22.5272032,26.0004527 21.6471362,25.9999989 C20.8220734,25.999545 20.0089681,25.8656541 19.2269521,25.6182962 C18.1684802,25.2824342 17.2582805,24.6615434 16.4451752,23.9512406 L16.4112161,23.9208315 L15.9434413,23.4946498 L9,16.3893529 L9.00239149,10.8349216 L19.3680497,20.9393754 C19.6904221,21.2212272 20.1701543,21.6011143 20.5924907,21.7345514 C20.933995,21.8425719 21.287935,21.9056595 21.6485711,21.9065672 C22.0560804,21.9065672 22.4535454,21.8457489 22.839053,21.7204815 C23.1862968,21.6079223 23.4895372,21.4331833 23.7535573,21.1912719 C24.0510582,20.9180436 24.2605524,20.5662962 24.4116944,20.2041099 C24.6168839,19.7121175 24.6800191,19.1538603 24.6804974,18.6296433 L24.686237,5 Z"/>
    <polygon fill="#284670" points="43 25 43 2 48.659 2 60.34 16.089 60.34 2 66 2 66 25 60.34 25 48.659 10.871 48.659 25"/>
    <path fill="#284670" d="M79.0604359 10.8098603L87.8979524 10.8098603C87.7622193 9.78844063 87.3337186 8.91148287 86.6114597 8.17852398 85.8877147 7.44463905 84.877642 7.07746507 83.5807464 7.07746507 82.4453435 7.07746507 81.444683 7.43769376 80.5812417 8.15815115 79.715819 8.87953457 79.2095443 9.76390063 79.0604359 10.8098603M73 13.3106253C73 9.99633611 73.9897622 7.28211942 75.9692867 5.16936425 77.9488111 3.05660909 80.4866248 2 83.5807464 2 86.702609 2 89.2186262 2.93483513 91.1317701 4.80404236 93.043428 6.67324959 94 9.1550308 94 12.249849L94 15.8118533 79.0203104 15.8118533C79.1411823 17.0620043 79.6613276 18.05981 80.5812417 18.8052704 81.4991744 19.5498047 82.6890687 19.9225349 84.1484478 19.9225349 85.1079921 19.9225349 86.056638 19.727141 86.9968626 19.335427 87.9346103 18.944176 88.7495046 18.3760519 89.4385733 17.6301284L93.6145971 20.9647904C91.0866909 23.6549301 87.965819 25 84.25 25 80.7491744 25 77.9993395 23.969783 76 21.9074969 73.9996697 19.8461368 73 16.9800499 73 13.3106253M108.475723 12.4176165L113.016519 12.4176165C113.808087 12.4176165 114.42629 12.148851 114.868273 11.6113199 115.309779 11.0747335 115.53077 10.4474565 115.53077 9.73090588 115.53077 9.01529994 115.309779 8.39841456 114.868273 7.88024973 114.42629 7.3620849 113.769985 7.10229396 112.899832 7.10229396L108.475723 7.10229396 108.475723 12.4176165zM103 25L103 2 113.113203 2C115.439325 2 117.336325 2.72032941 118.804678 4.16051589 120.272554 5.60070236 121.006492 7.47639291 121.006492 9.78900458 121.006492 11.7969523 120.28589 13.5493603 118.843732 15.0457561 119.35525 15.7575832 119.705312 16.4764956 119.89344 17.2020208L122 25 116.17374 25 114.451057 18.7007783C114.373424 18.3540755 114.198155 18.0706672 113.925726 17.8505535 113.653298 17.6304397 113.335147 17.5203828 112.971273 17.5203828L108.475723 17.5203828 108.475723 25 103 25z"/>
    <polygon fill="#284670" points="126 2 132.488 2 137.489 11.258 142.491 2 149 2 140.275 16.496 140.275 25 134.665 25 134.665 16.496"/>
    <path fill="#284670" d="M159.408937,17.6298138 C159.408937,18.0983795 159.525381,18.4919376 159.759702,18.8146553 C159.994499,19.1359839 160.307086,19.3730448 160.697461,19.5244489 C161.088313,19.675853 161.465803,19.7804932 161.82993,19.8379064 C162.194057,19.8943936 162.572024,19.9217111 162.962399,19.9217111 C164.277171,19.9217111 165.364303,19.6156618 166.223319,19.0035632 C167.082335,18.3919275 167.512797,17.6108304 167.512797,16.6639758 L167.512797,15.6222043 L162.767212,15.6222043 C162.090021,15.6222043 161.514003,15.6879517 161.039158,15.8208354 C160.564313,15.9532562 160.215457,16.1268848 159.994499,16.3412582 C159.773541,16.5560946 159.619873,16.76769 159.53588,16.9765073 C159.45141,17.1848616 159.408937,17.4024761 159.408937,17.6298138 M154,17.7432511 C154,16.8848314 154.175144,16.0477101 154.526863,15.2332763 C154.878105,14.4188425 155.376334,13.6803422 156.020596,13.0168495 C156.665335,12.3538198 157.494763,11.8199698 158.510311,11.4157625 C159.525381,11.0115551 160.651646,10.8101459 161.888152,10.8101459 L167.512797,10.8101459 L167.512797,9.74892803 C167.512797,8.94005033 167.1711,8.29276296 166.487228,7.80660292 C165.803356,7.32044288 164.92191,7.07736286 163.841459,7.07736286 C162.9037,7.07736286 162.027981,7.32692501 161.215256,7.82558631 C160.4011,8.32471062 159.773541,8.87661802 159.330671,9.48362355 L155.366313,6.22449925 C155.574862,5.90872672 155.903197,5.54572723 156.352749,5.13550075 C156.801346,4.72481127 157.390727,4.27013588 158.120413,3.77147458 C158.848668,3.27281329 159.756838,2.8524006 160.843971,2.51116256 C161.930626,2.17038752 163.060232,2 164.231357,2 C165.716022,2 167.1124,2.27734273 168.420968,2.83341721 C169.729058,3.3894917 170.818577,4.23865123 171.690955,5.38182184 C172.562856,6.52499245 173,7.85382989 173,9.3697232 L173,24.7351585 L167.512797,24.7351585 L167.512797,23.6169904 C166.927235,24.0462003 166.177505,24.3837343 165.266948,24.6305184 C164.355437,24.8768395 163.437721,25 162.513325,25 C160.014066,25 157.970085,24.324006 156.381383,22.9724811 C154.793158,21.6209562 154,19.8781882 154,17.7432511"/>
  </g>
</svg>
